<?xml version="1.0" standalone="no"?>
<!DOCTYPE svg PUBLIC "-//W3C//DTD SVG 20010904//EN"
 "http://www.w3.org/TR/2001/REC-SVG-20010904/DTD/svg10.dtd">
<svg version="1.0" xmlns="http://www.w3.org/2000/svg"
 width="1024.000000pt" height="1024.000000pt" viewBox="0 0 1024.000000 1024.000000"
 preserveAspectRatio="xMidYMid meet">
<rect width="1024px" height="1024px" fill="#ffffff"/>
<g transform="translate(0.000000,1024.000000) scale(0.100000,-0.100000)"
fill="#000000" stroke="none">
<path d="M0 5120 l0 -5120 5120 0 5120 0 0 5120 0 5120 -5120 0 -5120 0 0
-5120z m7295 3030 c450 -52 849 -245 1162 -562 277 -279 446 -593 530 -985
l28 -128 0 -1355 0 -1355 -28 -128 c-66 -309 -191 -578 -381 -822 -75 -97
-243 -261 -348 -341 -286 -215 -606 -343 -963 -384 -126 -14 -4230 -14 -4363
1 -785 85 -1449 648 -1657 1405 -73 267 -70 192 -70 1624 0 1199 1 1292 18
1394 98 582 420 1063 917 1369 214 132 520 237 775 265 116 13 4266 15 4380 2z"/>
<path d="M2968 7295 c-233 -37 -447 -152 -616 -330 -140 -148 -229 -318 -276
-525 -21 -94 -21 -107 -21 -1320 0 -1213 0 -1226 21 -1320 47 -207 136 -377
276 -525 180 -190 404 -304 660 -335 67 -8 661 -10 2163 -8 2272 4 2090 -1
2274 62 362 125 634 446 706 835 23 125 23 2457 0 2582 -72 389 -344 710 -706
835 -184 63 2 58 -2299 60 -1724 2 -2110 0 -2182 -11z m503 -1144 c146 -46
256 -168 288 -319 7 -36 11 -264 11 -720 0 -727 0 -730 -57 -834 -14 -26 -50
-71 -80 -99 -213 -202 -549 -137 -677 131 l-31 65 0 740 0 740 32 67 c94 198
307 293 514 229z m3582 -18 c89 -42 168 -121 210 -210 l32 -68 3 -715 c3 -690
2 -717 -17 -780 -26 -84 -86 -168 -157 -219 -81 -58 -141 -76 -254 -76 -89 0
-100 2 -170 36 -97 47 -162 112 -209 209 l-36 75 0 725 c0 820 -4 775 81 890
85 115 207 172 359 167 77 -2 100 -7 158 -34z"/>
</g>
</svg>
