<svg width="1024" height="1024" viewBox="0 0 1024 1024" fill="none" xmlns="http://www.w3.org/2000/svg">
<g filter="url(#filter0_di_2002_97)">
<path fill-rule="evenodd" clip-rule="evenodd" d="M924 356.627C924 346.845 924.004 337.062 923.944 327.279C923.895 319.038 923.8 310.799 923.576 302.562C923.092 284.609 922.033 266.502 918.84 248.749C915.602 230.741 910.314 213.98 901.981 197.617C893.789 181.534 883.088 166.817 870.32 154.058C857.555 141.299 842.834 130.605 826.746 122.418C810.366 114.083 793.587 108.797 775.558 105.56C757.803 102.372 739.691 101.315 721.738 100.83C713.495 100.607 705.253 100.513 697.008 100.462C687.22 100.402 677.432 100.407 667.644 100.407L553.997 100H468.997L357.361 100.407C347.554 100.407 337.747 100.402 327.94 100.462C319.678 100.513 311.42 100.607 303.161 100.83C285.167 101.315 267.014 102.373 249.217 105.565C231.164 108.801 214.36 114.085 197.958 122.414C181.835 130.602 167.083 141.297 154.291 154.058C141.501 166.816 130.78 181.53 122.573 197.61C114.217 213.981 108.919 230.752 105.673 248.77C102.477 266.516 101.418 284.617 100.931 302.562C100.709 310.8 100.613 319.039 100.563 327.279C100.503 337.063 100 349.216 100 358.999L100.003 469.089L100 554.998L100.508 667.427C100.508 677.223 100.504 687.019 100.563 696.815C100.613 705.067 100.709 713.317 100.932 721.566C101.418 739.542 102.479 757.675 105.678 775.452C108.923 793.484 114.22 810.269 122.569 826.653C130.777 842.759 141.5 857.495 154.291 870.272C167.082 883.049 181.83 893.757 197.95 901.956C214.362 910.302 231.174 915.595 249.238 918.836C267.027 922.029 285.174 923.088 303.161 923.573C311.42 923.796 319.679 923.891 327.941 923.941C337.748 924.001 347.554 923.997 357.361 923.997L470.006 924H555.217L667.644 923.996C677.432 923.996 687.22 924.001 697.008 923.941C705.253 923.891 713.495 923.796 721.738 923.573C739.698 923.087 757.816 922.027 775.579 918.832C793.597 915.591 810.368 910.3 826.739 901.959C842.831 893.761 857.554 883.051 870.32 870.272C883.086 857.497 893.786 842.763 901.978 826.66C910.316 810.268 915.604 793.475 918.844 775.431C922.034 757.661 923.092 739.535 923.577 721.566C923.8 713.316 923.895 705.066 923.944 696.815C924.005 687.019 924 677.223 924 667.427C924 667.427 923.994 556.983 923.994 554.998V468.999C923.994 467.533 924 356.627 924 356.627" fill="white" style="fill:white;fill-opacity:1;mix-blend-mode:darken" shape-rendering="crispEdges"/>
</g>
<mask id="path-2-inside-1_2002_97" fill="white">
<path fill-rule="evenodd" clip-rule="evenodd" d="M924 356.627C924 346.845 924.004 337.062 923.944 327.279C923.895 319.038 923.8 310.799 923.576 302.562C923.092 284.609 922.033 266.502 918.84 248.749C915.602 230.741 910.314 213.98 901.981 197.617C893.789 181.534 883.088 166.817 870.32 154.058C857.555 141.299 842.834 130.605 826.746 122.418C810.366 114.083 793.587 108.797 775.558 105.56C757.803 102.372 739.691 101.315 721.738 100.83C713.495 100.607 705.253 100.513 697.008 100.462C687.22 100.402 677.432 100.407 667.644 100.407L553.997 100H468.997L357.361 100.407C347.554 100.407 337.747 100.402 327.94 100.462C319.678 100.513 311.42 100.607 303.161 100.83C285.167 101.315 267.014 102.373 249.217 105.565C231.164 108.801 214.36 114.085 197.958 122.414C181.835 130.602 167.083 141.297 154.291 154.058C141.501 166.816 130.78 181.53 122.573 197.61C114.217 213.981 108.919 230.752 105.673 248.77C102.477 266.516 101.418 284.617 100.931 302.562C100.709 310.8 100.613 319.039 100.563 327.279C100.503 337.063 100 349.216 100 358.999L100.003 469.089L100 554.998L100.508 667.427C100.508 677.223 100.504 687.019 100.563 696.815C100.613 705.067 100.709 713.317 100.932 721.566C101.418 739.542 102.479 757.675 105.678 775.452C108.923 793.484 114.22 810.269 122.569 826.653C130.777 842.759 141.5 857.495 154.291 870.272C167.082 883.049 181.83 893.757 197.95 901.956C214.362 910.302 231.174 915.595 249.238 918.836C267.027 922.029 285.174 923.088 303.161 923.573C311.42 923.796 319.679 923.891 327.941 923.941C337.748 924.001 347.554 923.997 357.361 923.997L470.006 924H555.217L667.644 923.996C677.432 923.996 687.22 924.001 697.008 923.941C705.253 923.891 713.495 923.796 721.738 923.573C739.698 923.087 757.816 922.027 775.579 918.832C793.597 915.591 810.368 910.3 826.739 901.959C842.831 893.761 857.554 883.051 870.32 870.272C883.086 857.497 893.786 842.763 901.978 826.66C910.316 810.268 915.604 793.475 918.844 775.431C922.034 757.661 923.092 739.535 923.577 721.566C923.8 713.316 923.895 705.066 923.944 696.815C924.005 687.019 924 677.223 924 667.427C924 667.427 923.994 556.983 923.994 554.998V468.999C923.994 467.533 924 356.627 924 356.627"/>
</mask>
<g filter="url(#filter1_i_2002_97)">
<path fill-rule="evenodd" clip-rule="evenodd" d="M924 356.627C924 346.845 924.004 337.062 923.944 327.279C923.895 319.038 923.8 310.799 923.576 302.562C923.092 284.609 922.033 266.502 918.84 248.749C915.602 230.741 910.314 213.98 901.981 197.617C893.789 181.534 883.088 166.817 870.32 154.058C857.555 141.299 842.834 130.605 826.746 122.418C810.366 114.083 793.587 108.797 775.558 105.56C757.803 102.372 739.691 101.315 721.738 100.83C713.495 100.607 705.253 100.513 697.008 100.462C687.22 100.402 677.432 100.407 667.644 100.407L553.997 100H468.997L357.361 100.407C347.554 100.407 337.747 100.402 327.94 100.462C319.678 100.513 311.42 100.607 303.161 100.83C285.167 101.315 267.014 102.373 249.217 105.565C231.164 108.801 214.36 114.085 197.958 122.414C181.835 130.602 167.083 141.297 154.291 154.058C141.501 166.816 130.78 181.53 122.573 197.61C114.217 213.981 108.919 230.752 105.673 248.77C102.477 266.516 101.418 284.617 100.931 302.562C100.709 310.8 100.613 319.039 100.563 327.279C100.503 337.063 100 349.216 100 358.999L100.003 469.089L100 554.998L100.508 667.427C100.508 677.223 100.504 687.019 100.563 696.815C100.613 705.067 100.709 713.317 100.932 721.566C101.418 739.542 102.479 757.675 105.678 775.452C108.923 793.484 114.22 810.269 122.569 826.653C130.777 842.759 141.5 857.495 154.291 870.272C167.082 883.049 181.83 893.757 197.95 901.956C214.362 910.302 231.174 915.595 249.238 918.836C267.027 922.029 285.174 923.088 303.161 923.573C311.42 923.796 319.679 923.891 327.941 923.941C337.748 924.001 347.554 923.997 357.361 923.997L470.006 924H555.217L667.644 923.996C677.432 923.996 687.22 924.001 697.008 923.941C705.253 923.891 713.495 923.796 721.738 923.573C739.698 923.087 757.816 922.027 775.579 918.832C793.597 915.591 810.368 910.3 826.739 901.959C842.831 893.761 857.554 883.051 870.32 870.272C883.086 857.497 893.786 842.763 901.978 826.66C910.316 810.268 915.604 793.475 918.844 775.431C922.034 757.661 923.092 739.535 923.577 721.566C923.8 713.316 923.895 705.066 923.944 696.815C924.005 687.019 924 677.223 924 667.427C924 667.427 923.994 556.983 923.994 554.998V468.999C923.994 467.533 924 356.627 924 356.627" fill="black" style="fill:black;fill-opacity:1;"/>
</g>
<path d="M923.944 327.279L922.944 327.285V327.285L923.944 327.279ZM923.576 302.562L922.576 302.589V302.589L923.576 302.562ZM918.84 248.749L917.856 248.926V248.926L918.84 248.749ZM901.981 197.617L902.872 197.163L902.872 197.163L901.981 197.617ZM870.32 154.058L869.613 154.765L869.613 154.765L870.32 154.058ZM826.746 122.418L827.199 121.527V121.527L826.746 122.418ZM775.558 105.56L775.381 106.544L775.381 106.544L775.558 105.56ZM721.738 100.83L721.711 101.83L721.711 101.83L721.738 100.83ZM697.008 100.462L697.014 99.462L697.014 99.462L697.008 100.462ZM667.644 100.407L667.64 101.407H667.644V100.407ZM553.997 100L554 99H553.997V100ZM468.997 100V99L468.994 99L468.997 100ZM357.361 100.407V101.407L357.365 101.407L357.361 100.407ZM327.94 100.462L327.934 99.462L327.934 99.462L327.94 100.462ZM303.161 100.83L303.188 101.83L303.188 101.83L303.161 100.83ZM249.217 105.565L249.393 106.549L249.393 106.549L249.217 105.565ZM197.958 122.414L197.506 121.522L197.505 121.522L197.958 122.414ZM154.291 154.058L154.997 154.766L154.997 154.766L154.291 154.058ZM122.573 197.61L123.464 198.064L123.464 198.064L122.573 197.61ZM105.673 248.77L104.689 248.593L104.689 248.593L105.673 248.77ZM100.931 302.562L99.9314 302.535L99.9314 302.535L100.931 302.562ZM100.563 327.279L101.563 327.285L101.563 327.285L100.563 327.279ZM100 358.999H99V358.999L100 358.999ZM100.003 469.089L101.003 469.089V469.089L100.003 469.089ZM100 554.998L99 554.998L99 555.003L100 554.998ZM100.508 667.427H101.508L101.508 667.422L100.508 667.427ZM100.563 696.815L99.563 696.821H99.563L100.563 696.815ZM100.932 721.566L99.9324 721.593H99.9324L100.932 721.566ZM105.678 775.452L106.662 775.274H106.662L105.678 775.452ZM122.569 826.653L121.678 827.107H121.678L122.569 826.653ZM197.95 901.956L197.497 902.847H197.497L197.95 901.956ZM249.238 918.836L249.415 917.852H249.415L249.238 918.836ZM303.161 923.573L303.188 922.573H303.188L303.161 923.573ZM327.941 923.941L327.947 922.941H327.947L327.941 923.941ZM357.361 923.997L357.361 922.997H357.361V923.997ZM470.006 924L470.006 925H470.006V924ZM555.217 924V925H555.217L555.217 924ZM667.644 923.996V922.996H667.644L667.644 923.996ZM697.008 923.941L697.002 922.941H697.001L697.008 923.941ZM721.738 923.573L721.765 924.573V924.573L721.738 923.573ZM775.579 918.832L775.756 919.816H775.756L775.579 918.832ZM826.739 901.959L826.285 901.068L826.285 901.068L826.739 901.959ZM870.32 870.272L869.613 869.565L869.613 869.565L870.32 870.272ZM901.978 826.66L902.869 827.114V827.114L901.978 826.66ZM918.844 775.431L919.828 775.607V775.607L918.844 775.431ZM923.577 721.566L922.577 721.539V721.539L923.577 721.566ZM923.944 696.815L922.944 696.809V696.809L923.944 696.815ZM924 667.427H925V667.427L924 667.427ZM924 356.627H925C925 346.846 925.004 337.06 924.944 327.273L923.944 327.279L922.944 327.285C923.004 337.065 923 346.844 923 356.627H924ZM923.944 327.279L924.944 327.273C924.895 319.029 924.8 310.782 924.576 302.535L923.576 302.562L922.576 302.589C922.8 310.816 922.895 319.047 922.944 327.285L923.944 327.279ZM923.576 302.562L924.576 302.535C924.091 284.566 923.031 266.4 919.824 248.572L918.84 248.749L917.856 248.926C921.035 266.605 922.093 284.653 922.576 302.589L923.576 302.562ZM918.84 248.749L919.824 248.573C916.571 230.48 911.255 213.624 902.872 197.163L901.981 197.617L901.09 198.07C909.373 214.336 914.633 231.001 917.856 248.926L918.84 248.749ZM901.981 197.617L902.872 197.163C894.632 180.986 883.869 166.184 871.027 153.35L870.32 154.058L869.613 154.765C882.307 167.45 892.946 182.081 901.09 198.071L901.981 197.617ZM870.32 154.058L871.027 153.351C858.188 140.517 843.382 129.761 827.199 121.527L826.746 122.418L826.292 123.309C842.287 131.448 856.923 142.08 869.613 154.765L870.32 154.058ZM826.746 122.418L827.199 121.527C810.721 113.142 793.847 107.828 775.735 104.576L775.558 105.56L775.381 106.544C793.326 109.766 810.01 115.024 826.292 123.309L826.746 122.418ZM775.558 105.56L775.735 104.576C757.906 101.374 739.735 100.316 721.765 99.8304L721.738 100.83L721.711 101.83C739.648 102.314 757.701 103.37 775.381 106.544L775.558 105.56ZM721.738 100.83L721.765 99.8304C713.513 99.6071 705.262 99.513 697.014 99.462L697.008 100.462L697.001 101.462C705.243 101.513 713.478 101.607 721.711 101.83L721.738 100.83ZM697.008 100.462L697.014 99.462C687.222 99.402 677.431 99.407 667.644 99.407V100.407V101.407C677.433 101.407 687.217 101.402 697.001 101.462L697.008 100.462ZM667.644 100.407L667.647 99.407L554 99L553.997 100L553.993 101L667.64 101.407L667.644 100.407ZM553.997 100V99H468.997V100V101H553.997V100ZM468.997 100L468.994 99L357.357 99.407L357.361 100.407L357.365 101.407L469.001 101L468.997 100ZM357.361 100.407V99.407C347.555 99.407 337.745 99.402 327.934 99.462L327.94 100.462L327.946 101.462C337.75 101.402 347.553 101.407 357.361 101.407V100.407ZM327.94 100.462L327.934 99.462C319.669 99.513 311.403 99.6071 303.135 99.8304L303.161 100.83L303.188 101.83C311.437 101.607 319.688 101.513 327.946 101.462L327.94 100.462ZM303.161 100.83L303.135 99.8304C285.123 100.316 266.911 101.375 249.04 104.581L249.217 105.565L249.393 106.549C267.116 103.371 285.21 102.314 303.188 101.83L303.161 100.83ZM249.217 105.565L249.04 104.581C230.904 107.832 214.005 113.144 197.506 121.522L197.958 122.414L198.411 123.306C214.715 115.026 231.424 109.77 249.393 106.549L249.217 105.565ZM197.958 122.414L197.505 121.522C181.289 129.758 166.451 140.515 153.584 153.35L154.291 154.058L154.997 154.766C167.715 142.079 182.382 131.446 198.411 123.306L197.958 122.414ZM154.291 154.058L153.584 153.35C140.72 166.182 129.937 180.981 121.682 197.155L122.573 197.61L123.464 198.064C131.623 182.078 142.281 167.45 154.997 154.766L154.291 154.058ZM122.573 197.61L121.682 197.155C113.276 213.624 107.95 230.49 104.689 248.593L105.673 248.77L106.657 248.948C109.888 231.013 115.158 214.337 123.464 198.064L122.573 197.61ZM105.673 248.77L104.689 248.593C101.479 266.414 100.419 284.574 99.9314 302.535L100.931 302.562L101.931 302.589C102.417 284.661 103.475 266.619 106.657 248.948L105.673 248.77ZM100.931 302.562L99.9314 302.535C99.7091 310.783 99.613 319.03 99.563 327.273L100.563 327.279L101.563 327.285C101.613 319.049 101.709 310.817 101.931 302.589L100.931 302.562ZM100.563 327.279L99.563 327.273C99.5331 332.154 99.3926 337.627 99.2593 343.115C99.1261 348.598 99 354.094 99 358.999H100H101C101 354.122 101.125 348.65 101.259 343.164C101.392 337.683 101.533 332.189 101.563 327.285L100.563 327.279ZM100 358.999L99 358.999L99.003 469.089L100.003 469.089L101.003 469.089L101 358.999L100 358.999ZM100.003 469.089L99.003 469.089L99 554.998L100 554.998L101 554.998L101.003 469.089L100.003 469.089ZM100 554.998L99 555.003L99.508 667.431L100.508 667.427L101.508 667.422L101 554.994L100 554.998ZM100.508 667.427H99.508C99.508 677.222 99.504 687.021 99.563 696.821L100.563 696.815L101.563 696.809C101.504 687.016 101.508 677.224 101.508 667.427H100.508ZM100.563 696.815L99.563 696.821C99.613 705.076 99.7091 713.334 99.9324 721.593L100.932 721.566L101.932 721.539C101.709 713.3 101.613 705.057 101.563 696.809L100.563 696.815ZM100.932 721.566L99.9324 721.593C100.419 739.585 101.481 757.777 104.694 775.629L105.678 775.452L106.662 775.274C103.477 757.572 102.417 739.498 101.932 721.539L100.932 721.566ZM105.678 775.452L104.694 775.629C107.954 793.745 113.279 810.625 121.678 827.107L122.569 826.653L123.46 826.199C115.161 809.913 109.892 793.224 106.662 775.274L105.678 775.452ZM122.569 826.653L121.678 827.107C129.934 843.307 140.719 858.129 153.584 870.98L154.291 870.272L154.997 869.565C142.281 856.862 131.62 842.211 123.46 826.199L122.569 826.653ZM154.291 870.272L153.584 870.98C166.449 883.831 181.283 894.601 197.497 902.847L197.95 901.956L198.404 901.065C182.377 892.913 167.714 882.268 154.997 869.565L154.291 870.272ZM197.95 901.956L197.497 902.847C214.007 911.243 230.914 916.564 249.061 919.82L249.238 918.836L249.415 917.852C231.434 914.626 214.718 909.361 198.404 901.065L197.95 901.956ZM249.238 918.836L249.061 919.82C266.924 923.027 285.13 924.087 303.135 924.573L303.161 923.573L303.188 922.573C285.217 922.089 267.129 921.031 249.415 917.852L249.238 918.836ZM303.161 923.573L303.135 924.573C311.403 924.796 319.67 924.891 327.935 924.941L327.941 923.941L327.947 922.941C319.689 922.891 311.438 922.796 303.188 922.573L303.161 923.573ZM327.941 923.941L327.935 924.941C337.746 925.001 347.555 924.997 357.361 924.997V923.997V922.997C347.553 922.997 337.751 923.001 327.947 922.941L327.941 923.941ZM357.361 923.997L357.361 924.997L470.006 925L470.006 924L470.006 923L357.361 922.997L357.361 923.997ZM470.006 924V925H555.217V924V923H470.006V924ZM555.217 924L555.217 925L667.644 924.996L667.644 923.996L667.644 922.996L555.217 923L555.217 924ZM667.644 923.996V924.996C677.431 924.996 687.222 925.001 697.014 924.941L697.008 923.941L697.001 922.941C687.217 923.001 677.433 922.996 667.644 922.996V923.996ZM697.008 923.941L697.014 924.941C705.262 924.891 713.513 924.796 721.765 924.573L721.738 923.573L721.711 922.573C713.478 922.796 705.243 922.891 697.002 922.941L697.008 923.941ZM721.738 923.573L721.765 924.573C739.742 924.086 757.919 923.025 775.756 919.816L775.579 918.832L775.402 917.848C757.713 921.029 739.655 922.088 721.711 922.573L721.738 923.573ZM775.579 918.832L775.756 919.816C793.858 916.56 810.724 911.241 827.193 902.85L826.739 901.959L826.285 901.068C810.012 909.359 793.336 914.622 775.402 917.848L775.579 918.832ZM826.739 901.959L827.193 902.85C843.378 894.604 858.188 883.832 871.028 870.979L870.32 870.272L869.613 869.565C856.921 882.27 842.283 892.918 826.285 901.068L826.739 901.959ZM870.32 870.272L871.028 870.979C883.868 858.13 894.63 843.31 902.869 827.114L901.978 826.66L901.087 826.207C892.943 842.216 882.305 856.865 869.613 869.565L870.32 870.272ZM901.978 826.66L902.869 827.114C911.257 810.624 916.573 793.736 919.828 775.607L918.844 775.431L917.86 775.254C914.635 793.215 909.375 809.913 901.087 826.207L901.978 826.66ZM918.844 775.431L919.828 775.607C923.031 757.763 924.091 739.578 924.577 721.593L923.577 721.566L922.577 721.539C922.093 739.491 921.036 757.558 917.86 775.254L918.844 775.431ZM923.577 721.566L924.577 721.593C924.8 713.333 924.895 705.075 924.944 696.821L923.944 696.815L922.944 696.809C922.895 705.057 922.8 713.299 922.577 721.539L923.577 721.566ZM923.944 696.815L924.944 696.821C925.005 687.021 925 677.222 925 667.427H924H923C923 677.224 923.005 687.016 922.944 696.809L923.944 696.815ZM924 667.427C925 667.427 925 667.426 925 667.426C925 667.425 925 667.424 925 667.422C925 667.418 925 667.414 925 667.407C925 667.393 925 667.373 925 667.347C925 667.294 925 667.214 925 667.11C925 666.901 925 666.591 925 666.186C925 665.377 925 664.189 925 662.677C924.999 659.654 924.999 655.332 924.999 650.139C924.998 639.754 924.998 625.886 924.997 611.957C924.995 584.098 924.994 555.991 924.994 554.998H923.994H922.994C922.994 555.991 922.995 584.098 922.997 611.957C922.998 625.887 922.998 639.754 922.999 650.139C922.999 655.332 922.999 659.654 923 662.677C923 664.189 923 665.377 923 666.186C923 666.591 923 666.901 923 667.11C923 667.215 923 667.294 923 667.347C923 667.373 923 667.393 923 667.407C923 667.414 923 667.419 923 667.422C923 667.424 923 667.425 923 667.426C923 667.427 923 667.427 924 667.427ZM923.994 554.998H924.994V468.999H923.994H922.994V554.998H923.994ZM923.994 468.999H924.994C924.994 468.266 924.995 440.173 924.997 412.263C924.998 398.308 924.998 384.399 924.999 373.979C924.999 368.769 924.999 364.431 925 361.395C925 359.878 925 358.686 925 357.873C925 357.467 925 357.155 925 356.945C925 356.84 925 356.761 925 356.708C925 356.681 925 356.661 925 356.647C925 356.641 925 356.636 925 356.632C925 356.63 925 356.629 925 356.628C925 356.628 925 356.627 924 356.627C923 356.627 923 356.627 923 356.628C923 356.629 923 356.63 923 356.632C923 356.635 923 356.641 923 356.647C923 356.661 923 356.681 923 356.707C923 356.761 923 356.84 923 356.945C923 357.155 923 357.467 923 357.873C923 358.686 923 359.878 923 361.395C922.999 364.431 922.999 368.769 922.999 373.979C922.998 384.399 922.998 398.308 922.997 412.263C922.995 440.173 922.994 468.266 922.994 468.999H923.994Z" fill="black" style="fill:black;fill-opacity:1;" mask="url(#path-2-inside-1_2002_97)"/>
<g clip-path="url(#clip0_2002_97)">
<rect x="608" y="436" width="59" height="152" rx="29.5" fill="white" style="fill:white;fill-opacity:1;"/>
<rect x="354" y="436" width="59" height="152" rx="29.5" fill="white" style="fill:white;fill-opacity:1;"/>
<rect x="262" y="324" width="499" height="375" rx="106" stroke="white" style="stroke:white;stroke-opacity:1;" stroke-width="60" stroke-linejoin="round"/>
</g>
<defs>
<filter id="filter0_di_2002_97" x="76" y="86" width="872" height="872" filterUnits="userSpaceOnUse" color-interpolation-filters="sRGB">
<feFlood flood-opacity="0" result="BackgroundImageFix"/>
<feColorMatrix in="SourceAlpha" type="matrix" values="0 0 0 0 0 0 0 0 0 0 0 0 0 0 0 0 0 0 127 0" result="hardAlpha"/>
<feOffset dy="10"/>
<feGaussianBlur stdDeviation="12"/>
<feComposite in2="hardAlpha" operator="out"/>
<feColorMatrix type="matrix" values="0 0 0 0 0 0 0 0 0 0 0 0 0 0 0 0 0 0 0.3 0"/>
<feBlend mode="normal" in2="BackgroundImageFix" result="effect1_dropShadow_2002_97"/>
<feBlend mode="normal" in="SourceGraphic" in2="effect1_dropShadow_2002_97" result="shape"/>
<feColorMatrix in="SourceAlpha" type="matrix" values="0 0 0 0 0 0 0 0 0 0 0 0 0 0 0 0 0 0 127 0" result="hardAlpha"/>
<feOffset dy="4"/>
<feGaussianBlur stdDeviation="10"/>
<feComposite in2="hardAlpha" operator="arithmetic" k2="-1" k3="1"/>
<feColorMatrix type="matrix" values="0 0 0 0 0 0 0 0 0 0 0 0 0 0 0 0 0 0 0.2 0"/>
<feBlend mode="normal" in2="shape" result="effect2_innerShadow_2002_97"/>
</filter>
<filter id="filter1_i_2002_97" x="100" y="100" width="824" height="842" filterUnits="userSpaceOnUse" color-interpolation-filters="sRGB">
<feFlood flood-opacity="0" result="BackgroundImageFix"/>
<feBlend mode="normal" in="SourceGraphic" in2="BackgroundImageFix" result="shape"/>
<feColorMatrix in="SourceAlpha" type="matrix" values="0 0 0 0 0 0 0 0 0 0 0 0 0 0 0 0 0 0 127 0" result="hardAlpha"/>
<feOffset dy="18"/>
<feGaussianBlur stdDeviation="12"/>
<feComposite in2="hardAlpha" operator="arithmetic" k2="-1" k3="1"/>
<feColorMatrix type="matrix" values="0 0 0 0 1 0 0 0 0 1 0 0 0 0 1 0 0 0 0.12 0"/>
<feBlend mode="normal" in2="shape" result="effect1_innerShadow_2002_97"/>
</filter>
<clipPath id="clip0_2002_97">
<rect width="559" height="435" fill="white" style="fill:white;fill-opacity:1;" transform="translate(232 294)"/>
</clipPath>
</defs>
</svg>
